<svg width="475" height="178" xmlns="http://www.w3.org/2000/svg" xmlns:xlink="http://www.w3.org/1999/xlink" overflow="hidden"><defs><clipPath id="clip0"><rect x="38" y="285" width="475" height="178"/></clipPath></defs><g clip-path="url(#clip0)" transform="translate(-38 -285)"><text font-family="Arial,Arial_MSFontService,sans-serif" font-weight="400" font-size="14" transform="matrix(1.1875 0 0 1.18667 252.945 428)">Proxy</text><path d="M424.035 1101.66C437.143 1101.66 447.768 1112.28 447.768 1125.39L447.768 1163.36C447.768 1176.47 437.143 1187.1 424.035 1187.1L412.168 1187.1C399.061 1187.1 388.435 1176.47 388.435 1163.36L388.435 1125.39C388.435 1112.28 399.061 1101.66 412.168 1101.66Z" stroke="#000000" stroke-width="2.37333" stroke-linecap="round" stroke-miterlimit="8" fill="#E76969" fill-rule="evenodd" fill-opacity="0.941176" transform="matrix(1.0007 0 0 1 -142.105 -781.273)"/><path d="M399.115 1146.75 437.088 1146.75" stroke="#000000" stroke-width="2.37333" fill="none" transform="matrix(1.0007 0 0 1 -142.105 -781.273)"/><path d="M399.115 1159.01 437.088 1159.01" stroke="#000000" stroke-width="2.37333" fill="none" transform="matrix(1.0007 0 0 1 -142.105 -781.273)"/><path d="M399.115 1171.27 437.088 1171.27" stroke="#000000" stroke-width="2.37333" fill="none" transform="matrix(1.0007 0 0 1 -142.105 -781.273)"/><path d="M48.0738 1129.03C33.2909 1131.02 0.724748 1146.85 20.9594 1166.42 49.0928 1176.73 38.1077 1166.92 38.2737 1176.27 37.0172 1187.46 44.2958 1193.81 52.884 1194.32 63.5326 1195.09 83.1806 1189.81 86.6715 1178.13 93.5229 1182.67 101.263 1182.88 108.996 1182.91 119.566 1182.88 129.525 1182.39 136.343 1171.66 143.576 1156.7 134.703 1153.1 123.079 1154.99 128.719 1148.91 142.358 1144.42 137.542 1132.15 127.571 1118.66 105.723 1114.74 92.0152 1119.57 86.9658 1123.85 89.6136 1118.76 82.096 1112.02 64.3865 1094.31 32.4916 1105.91 48.0738 1129.03Z" stroke="#000000" stroke-width="2.25702" fill="#DDDDDF" fill-opacity="0.941176" transform="matrix(1.0007 0 0 1 38 -785.803)"/><text font-family="Arial,Arial_MSFontService,sans-serif" font-weight="400" font-size="14" transform="matrix(1.1875 0 0 1.18667 81.1385 430)">Internet<tspan font-size="14" x="256.477" y="-105.337">example</tspan>.com</text><path d="M370.849 1129.03C356.065 1131.02 323.5 1146.85 343.733 1166.42 371.867 1176.73 360.882 1166.92 361.048 1176.27 359.791 1187.46 367.07 1193.81 375.658 1194.32 386.307 1195.09 405.955 1189.81 409.446 1178.13 416.297 1182.67 424.038 1182.88 431.771 1182.91 442.341 1182.88 452.299 1182.39 459.118 1171.66 466.35 1156.7 457.478 1153.1 445.853 1154.99 451.493 1148.91 465.133 1144.42 460.316 1132.15 450.346 1118.66 428.498 1114.74 414.79 1119.57 409.741 1123.85 412.388 1118.76 404.87 1112.02 387.161 1094.31 355.267 1105.91 370.849 1129.03Z" stroke="#000000" stroke-width="2.25702" fill="#DDDDDF" fill-opacity="0.941176" transform="matrix(1.0007 0 0 1 38 -785.803)"/><text font-family="Arial,Arial_MSFontService,sans-serif" font-weight="400" font-size="14" transform="matrix(1.1875 0 0 1.18667 404.139 430)">Internet</text><path d="M118.997 1136.33C142.76 1125.79 201.497 1124.35 228.34 1135.54" stroke="#000000" stroke-width="1.18667" fill="none" transform="matrix(1.0007 0 0 1 182.083 -784.501)"/><path d="M0 0 2.37358-2.37358-5.93395 0 2.37358 2.37358 0 0Z" stroke="#000000" stroke-width="0.632953" fill-rule="evenodd" transform="matrix(-0.923542 -0.384784 0.385054 -0.922894 406.199 349.214)"/><path d="M229.138 1155.12C205.375 1165.67 146.638 1167.11 119.795 1155.91" stroke="#000000" stroke-width="1.18667" fill="none" transform="matrix(1.0007 0 0 1 182.083 -784.501)"/><path d="M0 0 2.37358-2.37358-5.93395 0 2.37358 2.37358 0 0Z" stroke="#000000" stroke-width="0.632953" fill-rule="evenodd" transform="matrix(0.923542 0.384784 -0.385054 0.922894 306.346 373.24)"/><path d="M118.997 1136.33C142.76 1125.79 201.497 1124.35 228.34 1135.54" stroke="#000000" stroke-width="1.18667" fill="none" transform="matrix(1.0007 0 0 1 27.6852 -784.501)"/><path d="M0 0 2.37358-2.37358-5.93395 0 2.37358 2.37358 0 0Z" stroke="#000000" stroke-width="0.632953" fill-rule="evenodd" transform="matrix(-0.923542 -0.384784 0.385054 -0.922894 251.801 349.214)"/><path d="M229.138 1155.12C205.375 1165.67 146.638 1167.11 119.795 1155.91" stroke="#000000" stroke-width="1.18667" fill="none" transform="matrix(1.0007 0 0 1 27.6852 -784.501)"/><path d="M0 0 2.37358-2.37358-5.93395 0 2.37358 2.37358 0 0Z" stroke="#000000" stroke-width="0.632953" fill-rule="evenodd" transform="matrix(0.923542 0.384784 -0.385054 0.922894 151.949 373.24)"/></g></svg>