<svg width="529" height="397" xmlns="http://www.w3.org/2000/svg" xmlns:xlink="http://www.w3.org/1999/xlink" overflow="hidden"><defs><clipPath id="clip0"><rect x="295" y="262" width="529" height="397"/></clipPath></defs><g clip-path="url(#clip0)" transform="translate(-295 -262)"><text font-family="Arial,Arial_MSFontService,sans-serif" font-weight="400" font-size="14" transform="matrix(1.3225 0 0 1.32333 544.147 518)">Proxy</text><path d="M472.573 1227.76C487.181 1227.76 499.023 1239.6 499.023 1254.21L499.023 1296.53C499.023 1311.14 487.181 1322.98 472.573 1322.98L459.348 1322.98C444.74 1322.98 432.898 1311.14 432.898 1296.53L432.898 1254.21C432.898 1239.6 444.74 1227.76 459.348 1227.76Z" stroke="#000000" stroke-width="2.645" stroke-linecap="round" stroke-miterlimit="8" fill="#E76969" fill-rule="evenodd" fill-opacity="0.941176" transform="matrix(1 0 0 1.00063 104.187 -830.913)"/><path d="M444.8 1278.01 487.12 1278.01" stroke="#000000" stroke-width="2.645" fill="none" transform="matrix(1 0 0 1.00063 104.187 -830.913)"/><path d="M444.8 1291.68 487.12 1291.68" stroke="#000000" stroke-width="2.645" fill="none" transform="matrix(1 0 0 1.00063 104.187 -830.913)"/><path d="M444.8 1305.35 487.12 1305.35" stroke="#000000" stroke-width="2.645" fill="none" transform="matrix(1 0 0 1.00063 104.187 -830.913)"/><text font-family="Arial,Arial_MSFontService,sans-serif" font-weight="400" font-size="14" transform="matrix(1.3225 0 0 1.32333 687.379 518)">Bob<tspan font-size="14" x="-245.772" y="1.51134">Alice</tspan></text><path d="M304.61 1117.97C331.093 1106.22 396.554 1104.62 426.469 1117.09" stroke="#000000" stroke-width="1.3225" fill="none" transform="matrix(1 0 0 1.00063 295 -733.626)"/><path d="M0 0 2.64525-2.64525-6.61312 0 2.64525 2.64525 0 0Z" stroke="#000000" stroke-width="0.705397" fill-rule="evenodd" transform="matrix(-0.922904 -0.385031 0.384788 -0.923485 716.587 382.132)"/><path d="M427.359 1263.23C400.876 1274.98 335.415 1276.58 305.5 1264.11" stroke="#000000" stroke-width="1.3225" fill="none" transform="matrix(1 0 0 1.00063 295 -733.626)"/><path d="M0 0 2.64525-2.64525-6.61312 0 2.64525 2.64525 0 0Z" stroke="#000000" stroke-width="0.705397" fill-rule="evenodd" transform="matrix(0.922904 0.385031 -0.384788 0.923485 605.383 533.318)"/><path d="M0.441001 1314.8C5.44439 1314.8 9.50044 1318.86 9.50044 1323.86L9.50044 1323.86C9.50044 1328.86 5.44439 1332.92 0.441001 1332.92L-78.0277 1332.92C-83.0311 1332.92-87.0872 1328.86-87.0872 1323.86L-87.0872 1323.86C-87.0872 1318.86-83.0311 1314.8-78.0277 1314.8Z" stroke="#000000" stroke-width="2.645" stroke-linecap="round" fill="#DDDDDD" fill-rule="evenodd" transform="matrix(1 0 0 1.00063 436.135 -846.694)"/><path d="M-24.2459 1249.36C-12.0726 1249.36-2.20421 1259.23-2.20421 1271.4L-2.20421 1288.15C-2.20421 1300.33-12.0726 1310.2-24.2459 1310.2L-53.3408 1310.2C-65.5141 1310.2-75.3825 1300.33-75.3825 1288.15L-75.3825 1271.4C-75.3825 1259.23-65.5141 1249.36-53.3408 1249.36Z" stroke="#000000" stroke-width="2.645" stroke-linecap="round" fill="#DDDDDD" fill-rule="evenodd" transform="matrix(1 0 0 1.00063 436.135 -846.694)"/><path d="M-35.2667 1322.98-2.645 1322.98" stroke="#000000" stroke-width="2.645" fill="none" transform="matrix(1 0 0 1.00063 436.135 -846.694)"/><path d="M130.015 1117.97C156.498 1106.22 221.959 1104.62 251.874 1117.09" stroke="#000000" stroke-width="1.3225" fill="none" transform="matrix(1 0 0 1.00063 295 -733.626)"/><path d="M0 0 2.64525-2.64525-6.61312 0 2.64525 2.64525 0 0Z" stroke="#000000" stroke-width="0.705397" fill-rule="evenodd" transform="matrix(-0.922904 -0.385031 0.384788 -0.923485 541.991 382.132)"/><path d="M252.764 1263.23C226.281 1274.98 160.82 1276.58 130.905 1264.11" stroke="#000000" stroke-width="1.3225" fill="none" transform="matrix(1 0 0 1.00063 295 -733.626)"/><path d="M0 0 2.64525-2.64525-6.61312 0 2.64525 2.64525 0 0Z" stroke="#000000" stroke-width="0.705397" fill-rule="evenodd" transform="matrix(0.922904 0.385029 -0.384787 0.923486 430.788 533.318)"/><path d="M405.635 1283.75 375.657 1303.15C375.657 1303.15 288.526 1302.87 290.137 1340.18 291.898 1381.92 456.691 1379.26 457.652 1333.13 458.365 1298.97 399.462 1304.03 399.462 1304.03L405.635 1283.75Z" stroke="#000000" stroke-width="1.3225" fill="none" transform="matrix(1 0 0 1.00063 295 -733.626)"/><path d="M343.029 1101.46 373.006 1082.06C373.006 1082.06 460.137 1082.34 458.527 1045.03 456.765 1003.28 291.972 1005.95 291.01 1052.08 290.298 1086.24 349.201 1081.18 349.201 1081.18L343.029 1101.46Z" stroke="#000000" stroke-width="1.3225" fill="none" transform="matrix(1 0 0 1.00063 295 -733.626)"/><path d="M153.471 1104.1 183.447 1084.7C183.447 1084.7 270.578 1084.98 268.969 1047.67 267.206 1005.93 102.414 1008.6 101.452 1054.73 100.739 1088.89 159.642 1083.82 159.642 1083.82L153.471 1104.1Z" stroke="#000000" stroke-width="1.3225" fill="none" transform="matrix(1 0 0 1.00063 295 -733.626)"/><text font-family="Arial,Arial_MSFontService,sans-serif" font-weight="400" font-size="12" transform="matrix(1.3225 0 0 1.32333 429.522 312)">Ask Bob what<tspan font-size="12" x="-12" y="15.1133">the current time is</tspan><tspan font-size="12" x="160.635" y="0">What is</tspan><tspan font-size="12" x="138.635" y="15.1133">the current time</tspan></text><path d="M193.16 1285.29 163.185 1304.69C163.185 1304.69 76.0522 1304.41 77.6625 1341.72 79.4246 1383.47 244.217 1380.8 245.18 1334.67 245.891 1300.5 186.99 1305.57 186.99 1305.57L193.16 1285.29Z" stroke="#000000" stroke-width="1.3225" fill="none" transform="matrix(1 0 0 1.00063 295 -733.626)"/><text font-family="Arial,Arial_MSFontService,sans-serif" font-weight="400" font-size="12" transform="matrix(1.3225 0 0 1.32333 636.451 599)">The time<tspan font-size="12" x="4.99999" y="15.1133">is </tspan><tspan font-size="12" x="18" y="15.1133">7</tspan><tspan font-size="12" x="25" y="15.1133">pm</tspan><tspan font-size="12" x="-171.5" y="0">Bob says the</tspan><tspan font-size="12" x="-168.5" y="15.1133">time is </tspan>7pm</text><path d="M0.441001 1314.8C5.44439 1314.8 9.50044 1318.86 9.50044 1323.86L9.50044 1323.86C9.50044 1328.86 5.44439 1332.92 0.441001 1332.92L-78.0277 1332.92C-83.0311 1332.92-87.0872 1328.86-87.0872 1323.86L-87.0872 1323.86C-87.0872 1318.86-83.0311 1314.8-78.0277 1314.8Z" stroke="#000000" stroke-width="2.645" stroke-linecap="round" fill="#DDDDDD" fill-rule="evenodd" transform="matrix(1 0 0 1.00063 750.007 -851.745)"/><path d="M-24.2459 1249.36C-12.0726 1249.36-2.20421 1259.23-2.20421 1271.4L-2.20421 1288.15C-2.20421 1300.33-12.0726 1310.2-24.2459 1310.2L-53.3408 1310.2C-65.5141 1310.2-75.3825 1300.33-75.3825 1288.15L-75.3825 1271.4C-75.3825 1259.23-65.5141 1249.36-53.3408 1249.36Z" stroke="#000000" stroke-width="2.645" stroke-linecap="round" fill="#DDDDDD" fill-rule="evenodd" transform="matrix(1 0 0 1.00063 750.007 -851.745)"/><path d="M-35.2667 1322.98-2.645 1322.98" stroke="#000000" stroke-width="2.645" fill="none" transform="matrix(1 0 0 1.00063 750.007 -851.745)"/><path d="M432.017 52.9C432.017 65.5602 421.753 75.8233 409.093 75.8233 396.433 75.8233 386.17 65.5602 386.17 52.9 386.17 40.2398 396.433 29.9767 409.093 29.9767 421.753 29.9767 432.017 40.2398 432.017 52.9Z" stroke="#000000" stroke-width="2.645" stroke-linecap="round" fill="#DDDDDD" fill-rule="evenodd" transform="matrix(1 0 0 1.00063 333.291 361.379)"/><path d="M488.443 1074.22 488.067 1094.5 481.643 1104.82" stroke="#000000" stroke-width="2.645" fill="none" transform="matrix(1 0 0 1.00063 255.704 -681.004)"/></g></svg>