<svg width="466" height="174" xmlns="http://www.w3.org/2000/svg" xmlns:xlink="http://www.w3.org/1999/xlink" overflow="hidden"><defs><clipPath id="clip0"><rect x="662" y="286" width="466" height="174"/></clipPath></defs><g clip-path="url(#clip0)" transform="translate(-662 -286)"><path d="M431.52 29.3866C444.333 29.3866 454.72 39.7736 454.72 52.5866L454.72 127.6C454.72 140.413 444.333 150.8 431.52 150.8L219.626 150.8C206.813 150.8 196.426 140.413 196.426 127.6L196.426 52.5866C196.426 39.7736 206.813 29.3866 219.626 29.3866Z" stroke="#777777" stroke-width="2.32" stroke-linecap="round" stroke-dasharray="2.32 4.64" fill="#FFFFFF" fill-rule="evenodd" transform="matrix(1.00431 0 0 1 662 286)"/><path d="M49.3135 1103.66C34.8628 1105.6 3.02846 1121.08 22.8084 1140.21 50.3095 1150.28 39.5713 1140.7 39.7336 1149.83 38.5054 1160.78 45.6204 1166.98 54.0156 1167.48 64.4249 1168.24 83.6314 1163.07 87.0438 1151.65 93.7412 1156.09 101.308 1156.3 108.867 1156.32 119.199 1156.3 128.934 1155.82 135.599 1145.33 142.67 1130.71 133.996 1127.18 122.633 1129.03 128.146 1123.09 141.479 1118.7 136.771 1106.71 127.025 1093.52 105.668 1089.69 92.2674 1094.41 87.3315 1098.6 89.9198 1093.62 82.5711 1087.03 65.2596 1069.72 34.0815 1081.06 49.3135 1103.66Z" stroke="#000000" stroke-width="2.2063" fill="#DDDDDF" fill-opacity="0.941176" transform="matrix(1.00431 0 0 1 662 -760.74)"/><text font-family="Arial,Arial_MSFontService,sans-serif" font-weight="400" font-size="14" transform="matrix(1.165 0 0 1.16 706.651 428)">Internet<tspan font-size="14" x="154.59" y="-1.72414">Proxy</tspan><tspan font-size="14" x="261.673" y="0">Web server</tspan></text><path d="M414.506 1076.9C427.319 1076.9 437.706 1087.29 437.706 1100.1L437.706 1137.22C437.706 1150.03 427.319 1160.42 414.506 1160.42L402.906 1160.42C390.093 1160.42 379.706 1150.03 379.706 1137.22L379.706 1100.1C379.706 1087.29 390.093 1076.9 402.906 1076.9Z" stroke="#000000" stroke-width="2.32" stroke-linecap="round" stroke-miterlimit="8" fill="#DDDDDD" fill-rule="evenodd" transform="matrix(1.00431 0 0 1 647.501 -756.313)"/><path d="M390.146 1120.98 427.266 1120.98" stroke="#000000" stroke-width="2.32" fill="none" transform="matrix(1.00431 0 0 1 647.501 -756.313)"/><path d="M390.146 1132.97 427.266 1132.97" stroke="#000000" stroke-width="2.32" fill="none" transform="matrix(1.00431 0 0 1 647.501 -756.313)"/><path d="M390.146 1144.95 427.266 1144.95" stroke="#000000" stroke-width="2.32" fill="none" transform="matrix(1.00431 0 0 1 647.501 -756.313)"/><text font-family="Arial,Arial_MSFontService,sans-serif" font-weight="400" font-size="14" transform="matrix(1.165 0 0 1.16 854.774 309)">example<tspan font-size="14" x="52" y="0">.</tspan><tspan font-size="14" x="56" y="0">com</tspan><tspan fill="#777777" font-size="14" x="59.854" y="125">Internal network</tspan></text><path d="M414.506 1076.9C427.319 1076.9 437.706 1087.29 437.706 1100.1L437.706 1137.22C437.706 1150.03 427.319 1160.42 414.506 1160.42L402.906 1160.42C390.093 1160.42 379.706 1150.03 379.706 1137.22L379.706 1100.1C379.706 1087.29 390.093 1076.9 402.906 1076.9Z" stroke="#000000" stroke-width="2.32" stroke-linecap="round" stroke-miterlimit="8" fill="#E76969" fill-rule="evenodd" fill-opacity="0.941176" transform="matrix(1.00431 0 0 1 499.184 -756.312)"/><path d="M390.146 1120.98 427.266 1120.98" stroke="#000000" stroke-width="2.32" fill="none" transform="matrix(1.00431 0 0 1 499.184 -756.312)"/><path d="M390.146 1132.97 427.266 1132.97" stroke="#000000" stroke-width="2.32" fill="none" transform="matrix(1.00431 0 0 1 499.184 -756.312)"/><path d="M390.146 1144.95 427.266 1144.95" stroke="#000000" stroke-width="2.32" fill="none" transform="matrix(1.00431 0 0 1 499.184 -756.312)"/><path d="M116.322 1110.8C139.551 1100.49 196.969 1099.08 223.208 1110.02" stroke="#000000" stroke-width="1.16" fill="none" transform="matrix(1.00431 0 0 1 665.861 -759.467)"/><path d="M0 0 2.32147-2.32147-5.80368 0 2.32147 2.32147 0 0Z" stroke="#000000" stroke-width="0.619058" fill-rule="evenodd" transform="matrix(-0.92638 -0.38458 0.386238 -0.922404 885.73 348.771)"/><path d="M223.989 1129.17C200.76 1139.47 143.342 1140.88 117.103 1129.94" stroke="#000000" stroke-width="1.16" fill="none" transform="matrix(1.00431 0 0 1 665.861 -759.467)"/><path d="M0 0 2.32147-2.32147-5.80368 0 2.32147 2.32147 0 0Z" stroke="#000000" stroke-width="0.619058" fill-rule="evenodd" transform="matrix(0.92638 0.38458 -0.386238 0.922404 787.77 372.257)"/><path d="M116.322 1110.8C139.551 1100.49 196.969 1099.08 223.208 1110.02" stroke="#000000" stroke-width="1.16" fill="none" transform="matrix(1.00431 0 0 1 812.673 -759.467)"/><path d="M0 0 2.32147-2.32147-5.80368 0 2.32147 2.32147 0 0Z" stroke="#000000" stroke-width="0.619058" fill-rule="evenodd" transform="matrix(-0.92638 -0.38458 0.386238 -0.922404 1032.54 348.771)"/><path d="M223.989 1129.17C200.76 1139.47 143.342 1140.88 117.103 1129.94" stroke="#000000" stroke-width="1.16" fill="none" transform="matrix(1.00431 0 0 1 812.673 -759.467)"/><path d="M0 0 2.32147-2.32147-5.80368 0 2.32147 2.32147 0 0Z" stroke="#000000" stroke-width="0.619058" fill-rule="evenodd" transform="matrix(0.92638 0.38458 -0.386238 0.922404 934.582 372.257)"/></g></svg>